<svg width="64" height="64" viewBox="0 0 64 64" xmlns="http://www.w3.org/2000/svg">
  <rect width="64" height="64" rx="12" fill="#635bff"/>
  <g transform="scale(1.2) translate(6, 6)">
    <path d="M25 10 C22.24 10 20 12.24 20 15 C20 17.76 22.24 20 25 20 C27.76 20 30 17.76 30 15 C30 12.24 27.76 10 25 10 M25 30 C22.24 30 20 32.24 20 35 C20 37.76 22.24 40 25 40 C27.76 40 30 37.76 30 35 C30 32.24 27.76 30 25 30 M15 20 C12.24 20 10 22.24 10 25 C10 27.76 12.24 30 15 30 C17.76 30 20 27.76 20 25 C20 22.24 17.76 20 15 20 M35 20 C32.24 20 30 22.24 30 25 C30 27.76 32.24 30 35 30 C37.76 30 40 27.76 40 25 C40 22.24 37.76 20 35 20" fill="#FFFFFF"/>
    <path d="M18 25 L23 30 L37 16" stroke="#635bff" stroke-width="4" fill="none" stroke-linecap="round"/>
  </g>
</svg>